<svg version="1.2" xmlns="http://www.w3.org/2000/svg" viewBox="0 0 531 531" width="531" height="531">
	<title>Layer 1</title>
	<style>
		.s0 { fill: #231f20 } 
	</style>
	<g id="Layer 1">
		<g id="Buttons">
			<g id="-e-Pause-BTN">
				<g id="&lt;Group&gt;">
					<path id="&lt;Compound Path&gt;" fill-rule="evenodd" class="s0" d="m265.5 530.9c-70.9 0-137.5-27.6-187.6-77.7-50.1-50.1-77.7-116.7-77.7-187.5 0-70.9 27.6-137.5 77.7-187.6 50.1-50.1 116.7-77.7 187.6-77.7 70.8 0 137.4 27.6 187.5 77.7 50.1 50.1 77.7 116.7 77.7 187.6 0 70.8-27.6 137.4-77.7 187.5-50.1 50.1-116.7 77.7-187.5 77.7zm0-486c-121.7 0-220.8 99-220.8 220.8 0 121.7 99.1 220.7 220.8 220.7 121.7 0 220.7-99 220.7-220.7 0-121.8-99-220.8-220.7-220.8z"/>
				</g>
				<g id="&lt;Group&gt;">
					<g id="&lt;Group&gt;">
						<path id="&lt;Path&gt;" class="s0" d="m235 405.2h-66v-279h66z"/>
					</g>
					<g id="&lt;Group&gt;">
						<path id="&lt;Path&gt;" class="s0" d="m362 405.2h-66v-279h66z"/>
					</g>
				</g>
			</g>
		</g>
	</g>
</svg>